<svg xmlns="http://www.w3.org/2000/svg" width="24" height="30" viewBox="0 0 24 30">
    <g fill="#0A71E6" fill-rule="nonzero">
        <path d="M23.438 30H1.875v-2.344h.938v1.407H22.5V2.813h-3.281v-.938h4.218z"/>
        <path d="M2.813 7.5h15.938v1H2.813zM2.813 9.375h15.938v1H2.813zM2.813 11.25h15.938v1H2.813zM2.813 13.125h6.563v1H2.813zM2.813 18.281h1v7.031h-1zM4.688 20.625h1v4.688h-1zM6.563 16.406h1v8.906h-1zM8.438 19.219h1v6.094h-1zM10.313 17.344h1v7.969h-1zM12.188 20.156h1v5.156h-1zM14.063 19.219h1v6.094h-1zM15.938 15.938h1v9.375h-1zM17.813 17.344h1v7.969h-1zM20.625 4.688h-3.75V.938h.938V3.75h2.812z"/>
        <path d="M21.563 28.125H0V0h17.538l4.024 4.025v24.1zM.938 27.187h19.687V4.413L17.15.937H.938v26.25z"/>
        <path d="M14.531 6.563H3.281a.469.469 0 0 1-.469-.47V3.282c0-.259.21-.469.47-.469h11.25c.258 0 .468.21.468.47v2.812c0 .258-.21.468-.469.468zM3.75 5.625h10.313V3.75H3.75v1.875z"/>
    </g>
</svg>
